<mxfile host="app.diagrams.net" modified="2020-06-28T02:28:55.585Z" agent="5.0 (Windows NT 10.0; WOW64) AppleWebKit/537.36 (KHTML, like Gecko) Chrome/74.0.3729.131 Safari/537.36" etag="MEeqO7B47ObtPbnHWngq" version="13.3.5" type="github">
  <diagram id="DWoz1k3Bb0fSr06vdhbW" name="Page-1">
    <mxGraphModel dx="980" dy="521" grid="1" gridSize="10" guides="1" tooltips="1" connect="1" arrows="1" fold="1" page="1" pageScale="1" pageWidth="1920" pageHeight="1200" math="0" shadow="0">
      <root>
        <mxCell id="0" />
        <mxCell id="1" parent="0" />
        <mxCell id="XqY9HQbqO_DV1W30D023-2" value="imsiRecord" style="swimlane;fontStyle=0;childLayout=stackLayout;horizontal=1;startSize=26;fillColor=none;horizontalStack=0;resizeParent=1;resizeParentMax=0;resizeLast=0;collapsible=1;marginBottom=0;" vertex="1" parent="1">
          <mxGeometry x="230" y="390" width="140" height="78" as="geometry" />
        </mxCell>
        <mxCell id="XqY9HQbqO_DV1W30D023-3" value="imsi" style="text;strokeColor=none;fillColor=none;align=left;verticalAlign=top;spacingLeft=4;spacingRight=4;overflow=hidden;rotatable=0;points=[[0,0.5],[1,0.5]];portConstraint=eastwest;" vertex="1" parent="XqY9HQbqO_DV1W30D023-2">
          <mxGeometry y="26" width="140" height="26" as="geometry" />
        </mxCell>
        <mxCell id="XqY9HQbqO_DV1W30D023-5" value="placeId" style="text;strokeColor=none;fillColor=none;align=left;verticalAlign=top;spacingLeft=4;spacingRight=4;overflow=hidden;rotatable=0;points=[[0,0.5],[1,0.5]];portConstraint=eastwest;" vertex="1" parent="XqY9HQbqO_DV1W30D023-2">
          <mxGeometry y="52" width="140" height="26" as="geometry" />
        </mxCell>
        <mxCell id="XqY9HQbqO_DV1W30D023-6" value="camera" style="swimlane;fontStyle=0;childLayout=stackLayout;horizontal=1;startSize=26;fillColor=none;horizontalStack=0;resizeParent=1;resizeParentMax=0;resizeLast=0;collapsible=1;marginBottom=0;" vertex="1" parent="1">
          <mxGeometry x="430" y="390" width="140" height="90" as="geometry" />
        </mxCell>
        <mxCell id="XqY9HQbqO_DV1W30D023-7" value="placeId&#xa;&#xa;cameraCode" style="text;strokeColor=none;fillColor=none;align=left;verticalAlign=top;spacingLeft=4;spacingRight=4;overflow=hidden;rotatable=0;points=[[0,0.5],[1,0.5]];portConstraint=eastwest;" vertex="1" parent="XqY9HQbqO_DV1W30D023-6">
          <mxGeometry y="26" width="140" height="64" as="geometry" />
        </mxCell>
        <mxCell id="XqY9HQbqO_DV1W30D023-10" value="" style="endArrow=none;html=1;entryX=-0.007;entryY=0.297;entryDx=0;entryDy=0;entryPerimeter=0;exitX=1;exitY=0.5;exitDx=0;exitDy=0;" edge="1" parent="1" source="XqY9HQbqO_DV1W30D023-5" target="XqY9HQbqO_DV1W30D023-7">
          <mxGeometry width="50" height="50" relative="1" as="geometry">
            <mxPoint x="360" y="540" as="sourcePoint" />
            <mxPoint x="410" y="490" as="targetPoint" />
          </mxGeometry>
        </mxCell>
        <mxCell id="XqY9HQbqO_DV1W30D023-15" value="carRecord" style="swimlane;fontStyle=0;childLayout=stackLayout;horizontal=1;startSize=26;fillColor=none;horizontalStack=0;resizeParent=1;resizeParentMax=0;resizeLast=0;collapsible=1;marginBottom=0;" vertex="1" parent="1">
          <mxGeometry x="640" y="390" width="140" height="90" as="geometry" />
        </mxCell>
        <mxCell id="XqY9HQbqO_DV1W30D023-17" value="cameraId&#xa;&#xa;carDocId&#xa;&#xa;" style="text;strokeColor=none;fillColor=none;align=left;verticalAlign=top;spacingLeft=4;spacingRight=4;overflow=hidden;rotatable=0;points=[[0,0.5],[1,0.5]];portConstraint=eastwest;" vertex="1" parent="XqY9HQbqO_DV1W30D023-15">
          <mxGeometry y="26" width="140" height="64" as="geometry" />
        </mxCell>
        <mxCell id="XqY9HQbqO_DV1W30D023-19" value="" style="endArrow=none;html=1;entryX=-0.007;entryY=0.281;entryDx=0;entryDy=0;entryPerimeter=0;exitX=1.029;exitY=0.813;exitDx=0;exitDy=0;exitPerimeter=0;" edge="1" parent="1" source="XqY9HQbqO_DV1W30D023-7" target="XqY9HQbqO_DV1W30D023-17">
          <mxGeometry width="50" height="50" relative="1" as="geometry">
            <mxPoint x="510" y="580" as="sourcePoint" />
            <mxPoint x="560" y="530" as="targetPoint" />
          </mxGeometry>
        </mxCell>
      </root>
    </mxGraphModel>
  </diagram>
</mxfile>
